<svg width="500" height="100" viewBox="0 0 500 100" fill="none" xmlns="http://www.w3.org/2000/svg">
<path d="M103.928 38.48C108.776 38.48 112.616 39.896 115.448 42.728C118.328 45.512 119.768 49.616 119.768 55.04V77H112.856V55.832C112.856 52.136 111.968 49.352 110.192 47.48C108.416 45.608 105.872 44.672 102.56 44.672C98.816 44.672 95.864 45.776 93.704 47.984C91.544 50.144 90.464 53.264 90.464 57.344V77H83.552V23.576H90.464V44.24C91.904 42.416 93.776 41 96.08 39.992C98.432 38.984 101.048 38.48 103.928 38.48ZM149.115 77.432C145.323 77.432 141.915 76.592 138.891 74.912C135.867 73.232 133.491 70.928 131.763 68C130.083 65.024 129.243 61.664 129.243 57.92C129.243 54.176 130.083 50.84 131.763 47.912C133.491 44.936 135.867 42.632 138.891 41C141.915 39.32 145.323 38.48 149.115 38.48C152.907 38.48 156.291 39.32 159.267 41C162.291 42.632 164.643 44.936 166.323 47.912C168.051 50.84 168.915 54.176 168.915 57.92C168.915 61.664 168.051 65.024 166.323 68C164.643 70.928 162.291 73.232 159.267 74.912C156.291 76.592 152.907 77.432 149.115 77.432ZM149.115 71.384C151.563 71.384 153.747 70.832 155.667 69.728C157.635 68.576 159.171 66.992 160.275 64.976C161.379 62.912 161.931 60.56 161.931 57.92C161.931 55.28 161.379 52.952 160.275 50.936C159.171 48.872 157.635 47.288 155.667 46.184C153.747 45.08 151.563 44.528 149.115 44.528C146.667 44.528 144.459 45.08 142.491 46.184C140.571 47.288 139.035 48.872 137.883 50.936C136.779 52.952 136.227 55.28 136.227 57.92C136.227 60.56 136.779 62.912 137.883 64.976C139.035 66.992 140.571 68.576 142.491 69.728C144.459 70.832 146.667 71.384 149.115 71.384ZM198.562 74.768C197.554 75.632 196.306 76.304 194.818 76.784C193.33 77.216 191.794 77.432 190.21 77.432C186.37 77.432 183.394 76.4 181.282 74.336C179.17 72.272 178.114 69.32 178.114 65.48V30.488H185.026V38.84H195.97V44.528H185.026V65.192C185.026 67.256 185.53 68.84 186.538 69.944C187.594 71.048 189.082 71.6 191.002 71.6C193.114 71.6 194.914 71 196.402 69.8L198.562 74.768ZM221.959 77.432C218.167 77.432 214.759 76.592 211.735 74.912C208.711 73.232 206.335 70.928 204.607 68C202.927 65.024 202.087 61.664 202.087 57.92C202.087 54.176 202.927 50.84 204.607 47.912C206.335 44.936 208.711 42.632 211.735 41C214.759 39.32 218.167 38.48 221.959 38.48C225.751 38.48 229.135 39.32 232.111 41C235.135 42.632 237.487 44.936 239.167 47.912C240.895 50.84 241.759 54.176 241.759 57.92C241.759 61.664 240.895 65.024 239.167 68C237.487 70.928 235.135 73.232 232.111 74.912C229.135 76.592 225.751 77.432 221.959 77.432ZM221.959 71.384C224.407 71.384 226.591 70.832 228.511 69.728C230.479 68.576 232.015 66.992 233.119 64.976C234.223 62.912 234.775 60.56 234.775 57.92C234.775 55.28 234.223 52.952 233.119 50.936C232.015 48.872 230.479 47.288 228.511 46.184C226.591 45.08 224.407 44.528 221.959 44.528C219.511 44.528 217.303 45.08 215.335 46.184C213.415 47.288 211.879 48.872 210.727 50.936C209.623 52.952 209.071 55.28 209.071 57.92C209.071 60.56 209.623 62.912 210.727 64.976C211.879 66.992 213.415 68.576 215.335 69.728C217.303 70.832 219.511 71.384 221.959 71.384Z" fill="black"/>
<path d="M324.896 77.432C321.104 77.432 317.696 76.592 314.672 74.912C311.648 73.232 309.272 70.928 307.544 68C305.864 65.024 305.024 61.664 305.024 57.92C305.024 54.176 305.864 50.84 307.544 47.912C309.272 44.936 311.648 42.632 314.672 41C317.696 39.32 321.104 38.48 324.896 38.48C328.688 38.48 332.072 39.32 335.048 41C338.072 42.632 340.424 44.936 342.104 47.912C343.832 50.84 344.696 54.176 344.696 57.92C344.696 61.664 343.832 65.024 342.104 68C340.424 70.928 338.072 73.232 335.048 74.912C332.072 76.592 328.688 77.432 324.896 77.432ZM324.896 71.384C327.344 71.384 329.528 70.832 331.448 69.728C333.416 68.576 334.952 66.992 336.056 64.976C337.16 62.912 337.712 60.56 337.712 57.92C337.712 55.28 337.16 52.952 336.056 50.936C334.952 48.872 333.416 47.288 331.448 46.184C329.528 45.08 327.344 44.528 324.896 44.528C322.448 44.528 320.24 45.08 318.272 46.184C316.352 47.288 314.816 48.872 313.664 50.936C312.56 52.952 312.008 55.28 312.008 57.92C312.008 60.56 312.56 62.912 313.664 64.976C314.816 66.992 316.352 68.576 318.272 69.728C320.24 70.832 322.448 71.384 324.896 71.384ZM370.599 77.432C366.807 77.432 363.399 76.592 360.375 74.912C357.351 73.232 354.975 70.928 353.247 68C351.567 65.024 350.727 61.664 350.727 57.92C350.727 54.176 351.567 50.84 353.247 47.912C354.975 44.936 357.351 42.632 360.375 41C363.399 39.32 366.807 38.48 370.599 38.48C374.391 38.48 377.775 39.32 380.751 41C383.775 42.632 386.127 44.936 387.807 47.912C389.535 50.84 390.399 54.176 390.399 57.92C390.399 61.664 389.535 65.024 387.807 68C386.127 70.928 383.775 73.232 380.751 74.912C377.775 76.592 374.391 77.432 370.599 77.432ZM370.599 71.384C373.047 71.384 375.231 70.832 377.151 69.728C379.119 68.576 380.655 66.992 381.759 64.976C382.863 62.912 383.415 60.56 383.415 57.92C383.415 55.28 382.863 52.952 381.759 50.936C380.655 48.872 379.119 47.288 377.151 46.184C375.231 45.08 373.047 44.528 370.599 44.528C368.151 44.528 365.943 45.08 363.975 46.184C362.055 47.288 360.519 48.872 359.367 50.936C358.263 52.952 357.711 55.28 357.711 57.92C357.711 60.56 358.263 62.912 359.367 64.976C360.519 66.992 362.055 68.576 363.975 69.728C365.943 70.832 368.151 71.384 370.599 71.384ZM420.046 74.768C419.038 75.632 417.79 76.304 416.302 76.784C414.814 77.216 413.278 77.432 411.694 77.432C407.854 77.432 404.878 76.4 402.766 74.336C400.654 72.272 399.598 69.32 399.598 65.48V30.488H406.51V38.84H417.454V44.528H406.51V65.192C406.51 67.256 407.014 68.84 408.022 69.944C409.078 71.048 410.566 71.6 412.486 71.6C414.598 71.6 416.398 71 417.886 69.8L420.046 74.768ZM448.741 38.48C453.589 38.48 457.429 39.896 460.261 42.728C463.141 45.512 464.581 49.616 464.581 55.04V77H457.669V55.832C457.669 52.136 456.781 49.352 455.005 47.48C453.229 45.608 450.685 44.672 447.373 44.672C443.629 44.672 440.677 45.776 438.517 47.984C436.357 50.144 435.277 53.264 435.277 57.344V77H428.365V23.576H435.277V44.24C436.717 42.416 438.589 41 440.893 39.992C443.245 38.984 445.861 38.48 448.741 38.48Z" fill="black"/>
<path d="M44.1592 65.3916C46.1309 67.6749 48.8813 69.2665 52 69.748V76.8018C46.2959 76.2354 41.2973 73.2729 38.0244 68.9346L44.1592 65.3916Z" fill="#733EBE"/>
<path d="M69.9746 68.9346C66.7017 73.2726 61.7039 76.2354 56 76.8018V69.748C59.1182 69.2665 61.8672 67.6744 63.8389 65.3916L69.9746 68.9346Z" fill="#31ACD9"/>
<path d="M41.7207 52.6211C41.2535 53.9614 41 55.4018 41 56.9014C41 58.7099 41.3688 60.4324 42.0361 61.9971L35.9453 65.5146C34.6986 62.9061 34 59.9854 34 56.9014C34 54.126 34.5651 51.4825 35.5869 49.0801L41.7207 52.6211Z" fill="#DE2274"/>
<path d="M72.4121 49.0801C73.434 51.4826 74 54.1258 74 56.9014C74 59.9855 73.3005 62.906 72.0537 65.5146L65.9619 61.9971C66.6294 60.4322 67 58.7102 67 56.9014C67 55.4016 66.7446 53.9616 66.2773 52.6211L72.4121 49.0801Z" fill="#6AC82F"/>
<path d="M52 44.0537C48.5797 44.5818 45.5999 46.4439 43.6074 49.0908L37.5156 45.5742C40.7661 40.8529 45.9915 37.5966 52 37V44.0537Z" fill="#FF2B2B"/>
<path d="M56 37C62.0083 37.5965 67.2329 40.8531 70.4834 45.5742L64.3916 49.0908C62.3991 46.4441 59.4201 44.5818 56 44.0537V37Z" fill="#FFCC26"/>
<path d="M34 73.5127C35.9608 75.8709 38.3298 77.8772 41 79.4219V91.9014H34V73.5127Z" fill="black"/>
<path d="M264.159 65.4902C266.131 67.7735 268.881 69.3651 272 69.8467V76.9004C266.296 76.334 261.297 73.3715 258.024 69.0332L264.159 65.4902Z" fill="#FFCC26"/>
<path d="M289.975 69.0332C286.702 73.3713 281.704 76.334 276 76.9004V69.8467C279.118 69.3652 281.867 67.773 283.839 65.4902L289.975 69.0332Z" fill="#FF2B2B"/>
<path d="M261.721 52.7197C261.254 54.06 261 55.5004 261 57C261 58.8085 261.369 60.531 262.036 62.0957L255.945 65.6133C254.699 63.0047 254 60.084 254 57C254 54.2246 254.565 51.5812 255.587 49.1787L261.721 52.7197Z" fill="#6AC82F"/>
<path d="M292.412 49.1787C293.434 51.5813 294 54.2245 294 57C294 60.0842 293.301 63.0046 292.054 65.6133L285.962 62.0957C286.629 60.5308 287 58.8088 287 57C287 55.5002 286.745 54.0602 286.277 52.7197L292.412 49.1787Z" fill="#DE2274"/>
<path d="M272 44.1523C268.58 44.6805 265.6 46.5425 263.607 49.1895L257.516 45.6729C260.766 40.9515 265.992 37.6952 272 37.0986V44.1523Z" fill="#31ACD9"/>
<path d="M276 37.0986C282.008 37.6952 287.233 40.9518 290.483 45.6729L284.392 49.1895C282.399 46.5428 279.42 44.6804 276 44.1523V37.0986Z" fill="#733EBE"/>
<path d="M261 34.4785C258.33 36.0231 255.961 38.0296 254 40.3877V22H261V34.4785Z" fill="black"/>
</svg>
