<svg width="470" height="100" viewBox="0 0 470 100" fill="none" xmlns="http://www.w3.org/2000/svg">
<rect width="470" height="100" rx="8" fill="white"/>
<path d="M89.928 37.48C94.776 37.48 98.616 38.896 101.448 41.728C104.328 44.512 105.768 48.616 105.768 54.04V76H98.856V54.832C98.856 51.136 97.968 48.352 96.192 46.48C94.416 44.608 91.872 43.672 88.56 43.672C84.816 43.672 81.864 44.776 79.704 46.984C77.544 49.144 76.464 52.264 76.464 56.344V76H69.552V22.576H76.464V43.24C77.904 41.416 79.776 40 82.08 38.992C84.432 37.984 87.048 37.48 89.928 37.48ZM135.115 76.432C131.323 76.432 127.915 75.592 124.891 73.912C121.867 72.232 119.491 69.928 117.763 67C116.083 64.024 115.243 60.664 115.243 56.92C115.243 53.176 116.083 49.84 117.763 46.912C119.491 43.936 121.867 41.632 124.891 40C127.915 38.32 131.323 37.48 135.115 37.48C138.907 37.48 142.291 38.32 145.267 40C148.291 41.632 150.643 43.936 152.323 46.912C154.051 49.84 154.915 53.176 154.915 56.92C154.915 60.664 154.051 64.024 152.323 67C150.643 69.928 148.291 72.232 145.267 73.912C142.291 75.592 138.907 76.432 135.115 76.432ZM135.115 70.384C137.563 70.384 139.747 69.832 141.667 68.728C143.635 67.576 145.171 65.992 146.275 63.976C147.379 61.912 147.931 59.56 147.931 56.92C147.931 54.28 147.379 51.952 146.275 49.936C145.171 47.872 143.635 46.288 141.667 45.184C139.747 44.08 137.563 43.528 135.115 43.528C132.667 43.528 130.459 44.08 128.491 45.184C126.571 46.288 125.035 47.872 123.883 49.936C122.779 51.952 122.227 54.28 122.227 56.92C122.227 59.56 122.779 61.912 123.883 63.976C125.035 65.992 126.571 67.576 128.491 68.728C130.459 69.832 132.667 70.384 135.115 70.384ZM184.562 73.768C183.554 74.632 182.306 75.304 180.818 75.784C179.33 76.216 177.794 76.432 176.21 76.432C172.37 76.432 169.394 75.4 167.282 73.336C165.17 71.272 164.114 68.32 164.114 64.48V29.488H171.026V37.84H181.97V43.528H171.026V64.192C171.026 66.256 171.53 67.84 172.538 68.944C173.594 70.048 175.082 70.6 177.002 70.6C179.114 70.6 180.914 70 182.402 68.8L184.562 73.768ZM207.959 76.432C204.167 76.432 200.759 75.592 197.735 73.912C194.711 72.232 192.335 69.928 190.607 67C188.927 64.024 188.087 60.664 188.087 56.92C188.087 53.176 188.927 49.84 190.607 46.912C192.335 43.936 194.711 41.632 197.735 40C200.759 38.32 204.167 37.48 207.959 37.48C211.751 37.48 215.135 38.32 218.111 40C221.135 41.632 223.487 43.936 225.167 46.912C226.895 49.84 227.759 53.176 227.759 56.92C227.759 60.664 226.895 64.024 225.167 67C223.487 69.928 221.135 72.232 218.111 73.912C215.135 75.592 211.751 76.432 207.959 76.432ZM207.959 70.384C210.407 70.384 212.591 69.832 214.511 68.728C216.479 67.576 218.015 65.992 219.119 63.976C220.223 61.912 220.775 59.56 220.775 56.92C220.775 54.28 220.223 51.952 219.119 49.936C218.015 47.872 216.479 46.288 214.511 45.184C212.591 44.08 210.407 43.528 207.959 43.528C205.511 43.528 203.303 44.08 201.335 45.184C199.415 46.288 197.879 47.872 196.727 49.936C195.623 51.952 195.071 54.28 195.071 56.92C195.071 59.56 195.623 61.912 196.727 63.976C197.879 65.992 199.415 67.576 201.335 68.728C203.303 69.832 205.511 70.384 207.959 70.384Z" fill="black"/>
<path d="M310.896 76.432C307.104 76.432 303.696 75.592 300.672 73.912C297.648 72.232 295.272 69.928 293.544 67C291.864 64.024 291.024 60.664 291.024 56.92C291.024 53.176 291.864 49.84 293.544 46.912C295.272 43.936 297.648 41.632 300.672 40C303.696 38.32 307.104 37.48 310.896 37.48C314.688 37.48 318.072 38.32 321.048 40C324.072 41.632 326.424 43.936 328.104 46.912C329.832 49.84 330.696 53.176 330.696 56.92C330.696 60.664 329.832 64.024 328.104 67C326.424 69.928 324.072 72.232 321.048 73.912C318.072 75.592 314.688 76.432 310.896 76.432ZM310.896 70.384C313.344 70.384 315.528 69.832 317.448 68.728C319.416 67.576 320.952 65.992 322.056 63.976C323.16 61.912 323.712 59.56 323.712 56.92C323.712 54.28 323.16 51.952 322.056 49.936C320.952 47.872 319.416 46.288 317.448 45.184C315.528 44.08 313.344 43.528 310.896 43.528C308.448 43.528 306.24 44.08 304.272 45.184C302.352 46.288 300.816 47.872 299.664 49.936C298.56 51.952 298.008 54.28 298.008 56.92C298.008 59.56 298.56 61.912 299.664 63.976C300.816 65.992 302.352 67.576 304.272 68.728C306.24 69.832 308.448 70.384 310.896 70.384ZM356.599 76.432C352.807 76.432 349.399 75.592 346.375 73.912C343.351 72.232 340.975 69.928 339.247 67C337.567 64.024 336.727 60.664 336.727 56.92C336.727 53.176 337.567 49.84 339.247 46.912C340.975 43.936 343.351 41.632 346.375 40C349.399 38.32 352.807 37.48 356.599 37.48C360.391 37.48 363.775 38.32 366.751 40C369.775 41.632 372.127 43.936 373.807 46.912C375.535 49.84 376.399 53.176 376.399 56.92C376.399 60.664 375.535 64.024 373.807 67C372.127 69.928 369.775 72.232 366.751 73.912C363.775 75.592 360.391 76.432 356.599 76.432ZM356.599 70.384C359.047 70.384 361.231 69.832 363.151 68.728C365.119 67.576 366.655 65.992 367.759 63.976C368.863 61.912 369.415 59.56 369.415 56.92C369.415 54.28 368.863 51.952 367.759 49.936C366.655 47.872 365.119 46.288 363.151 45.184C361.231 44.08 359.047 43.528 356.599 43.528C354.151 43.528 351.943 44.08 349.975 45.184C348.055 46.288 346.519 47.872 345.367 49.936C344.263 51.952 343.711 54.28 343.711 56.92C343.711 59.56 344.263 61.912 345.367 63.976C346.519 65.992 348.055 67.576 349.975 68.728C351.943 69.832 354.151 70.384 356.599 70.384ZM406.046 73.768C405.038 74.632 403.79 75.304 402.302 75.784C400.814 76.216 399.278 76.432 397.694 76.432C393.854 76.432 390.878 75.4 388.766 73.336C386.654 71.272 385.598 68.32 385.598 64.48V29.488H392.51V37.84H403.454V43.528H392.51V64.192C392.51 66.256 393.014 67.84 394.022 68.944C395.078 70.048 396.566 70.6 398.486 70.6C400.598 70.6 402.398 70 403.886 68.8L406.046 73.768ZM434.741 37.48C439.589 37.48 443.429 38.896 446.261 41.728C449.141 44.512 450.581 48.616 450.581 54.04V76H443.669V54.832C443.669 51.136 442.781 48.352 441.005 46.48C439.229 44.608 436.685 43.672 433.373 43.672C429.629 43.672 426.677 44.776 424.517 46.984C422.357 49.144 421.277 52.264 421.277 56.344V76H414.365V22.576H421.277V43.24C422.717 41.416 424.589 40 426.893 38.992C429.245 37.984 431.861 37.48 434.741 37.48Z" fill="black"/>
<path d="M30.1592 64.3916C32.1309 66.6749 34.8813 68.2665 38 68.748V75.8018C32.2959 75.2354 27.2973 72.2729 24.0244 67.9346L30.1592 64.3916Z" fill="#733EBE"/>
<path d="M55.9746 67.9346C52.7017 72.2726 47.7039 75.2354 42 75.8018V68.748C45.1182 68.2665 47.8672 66.6744 49.8389 64.3916L55.9746 67.9346Z" fill="#31ACD9"/>
<path d="M27.7207 51.6211C27.2535 52.9614 27 54.4018 27 55.9014C27 57.7099 27.3688 59.4324 28.0361 60.9971L21.9453 64.5146C20.6986 61.9061 20 58.9854 20 55.9014C20 53.126 20.5651 50.4825 21.5869 48.0801L27.7207 51.6211Z" fill="#DE2274"/>
<path d="M58.4121 48.0801C59.434 50.4826 60 53.1258 60 55.9014C60 58.9855 59.3005 61.906 58.0537 64.5146L51.9619 60.9971C52.6294 59.4322 53 57.7102 53 55.9014C53 54.4016 52.7446 52.9616 52.2773 51.6211L58.4121 48.0801Z" fill="#6AC82F"/>
<path d="M38 43.0537C34.5797 43.5818 31.5999 45.4439 29.6074 48.0908L23.5156 44.5742C26.7661 39.8529 31.9915 36.5966 38 36V43.0537Z" fill="#FF2B2B"/>
<path d="M42 36C48.0083 36.5965 53.2329 39.8531 56.4834 44.5742L50.3916 48.0908C48.3991 45.4441 45.4201 43.5818 42 43.0537V36Z" fill="#FFCC26"/>
<path d="M20 72.5127C21.9608 74.8709 24.3298 76.8772 27 78.4219V90.9014H20V72.5127Z" fill="black"/>
<path d="M250.159 64.4902C252.131 66.7735 254.881 68.3651 258 68.8467V75.9004C252.296 75.334 247.297 72.3715 244.024 68.0332L250.159 64.4902Z" fill="#FFCC26"/>
<path d="M275.975 68.0332C272.702 72.3713 267.704 75.334 262 75.9004V68.8467C265.118 68.3652 267.867 66.773 269.839 64.4902L275.975 68.0332Z" fill="#FF2B2B"/>
<path d="M247.721 51.7197C247.254 53.06 247 54.5004 247 56C247 57.8085 247.369 59.531 248.036 61.0957L241.945 64.6133C240.699 62.0047 240 59.084 240 56C240 53.2246 240.565 50.5812 241.587 48.1787L247.721 51.7197Z" fill="#6AC82F"/>
<path d="M278.412 48.1787C279.434 50.5813 280 53.2245 280 56C280 59.0842 279.301 62.0046 278.054 64.6133L271.962 61.0957C272.629 59.5308 273 57.8088 273 56C273 54.5002 272.745 53.0602 272.277 51.7197L278.412 48.1787Z" fill="#DE2274"/>
<path d="M258 43.1523C254.58 43.6805 251.6 45.5425 249.607 48.1895L243.516 44.6729C246.766 39.9515 251.992 36.6952 258 36.0986V43.1523Z" fill="#31ACD9"/>
<path d="M262 36.0986C268.008 36.6952 273.233 39.9518 276.483 44.6729L270.392 48.1895C268.399 45.5428 265.42 43.6804 262 43.1523V36.0986Z" fill="#733EBE"/>
<path d="M247 33.4785C244.33 35.0231 241.961 37.0296 240 39.3877V21H247V33.4785Z" fill="black"/>
</svg>
