<svg width="100" height="100" viewBox="0 0 100 100" fill="none" xmlns="http://www.w3.org/2000/svg">
<g clip-path="url(#clip0_1_99)">
<rect width="100" height="100" rx="16" fill="white"/>
<path d="M17.1592 58.4902C19.1309 60.7735 21.8813 62.3651 25 62.8467V69.9004C19.2959 69.334 14.2973 66.3715 11.0244 62.0332L17.1592 58.4902Z" fill="#733EBE"/>
<path d="M42.9746 62.0332C39.7017 66.3713 34.7039 69.334 29 69.9004V62.8467C32.1182 62.3652 34.8672 60.773 36.8389 58.4902L42.9746 62.0332Z" fill="#31ACD9"/>
<path d="M14.7207 45.7197C14.2535 47.06 14 48.5004 14 50C14 51.8085 14.3688 53.531 15.0361 55.0957L8.94531 58.6133C7.69861 56.0047 7 53.084 7 50C7 47.2246 7.56514 44.5812 8.58691 42.1787L14.7207 45.7197Z" fill="#DE2274"/>
<path d="M45.4121 42.1787C46.434 44.5813 47 47.2245 47 50C47 53.0842 46.3005 56.0046 45.0537 58.6133L38.9619 55.0957C39.6294 53.5308 40 51.8088 40 50C40 48.5002 39.7446 47.0602 39.2773 45.7197L45.4121 42.1787Z" fill="#6AC82F"/>
<path d="M25 37.1523C21.5797 37.6805 18.5999 39.5425 16.6074 42.1895L10.5156 38.6729C13.7661 33.9515 18.9915 30.6952 25 30.0986V37.1523Z" fill="#FF2B2B"/>
<path d="M29 30.0986C35.0083 30.6952 40.2329 33.9518 43.4834 38.6729L37.3916 42.1895C35.3991 39.5428 32.4201 37.6804 29 37.1523V30.0986Z" fill="#FFCC26"/>
<path d="M63.1592 58.4902C65.1309 60.7735 67.8813 62.3651 71 62.8467V69.9004C65.2959 69.334 60.2973 66.3715 57.0244 62.0332L63.1592 58.4902Z" fill="#FFCC26"/>
<path d="M88.9746 62.0332C85.7017 66.3713 80.7039 69.334 75 69.9004V62.8467C78.1182 62.3652 80.8672 60.773 82.8389 58.4902L88.9746 62.0332Z" fill="#FF2B2B"/>
<path d="M60.7207 45.7197C60.2535 47.06 60 48.5004 60 50C60 51.8085 60.3688 53.531 61.0361 55.0957L54.9453 58.6133C53.6986 56.0047 53 53.084 53 50C53 47.2246 53.5651 44.5812 54.5869 42.1787L60.7207 45.7197Z" fill="#6AC82F"/>
<path d="M91.4121 42.1787C92.434 44.5813 93 47.2245 93 50C93 53.0842 92.3005 56.0046 91.0537 58.6133L84.9619 55.0957C85.6294 53.5308 86 51.8088 86 50C86 48.5002 85.7446 47.0602 85.2773 45.7197L91.4121 42.1787Z" fill="#DE2274"/>
<path d="M71 37.1523C67.5797 37.6805 64.5999 39.5425 62.6074 42.1895L56.5156 38.6729C59.7661 33.9515 64.9915 30.6952 71 30.0986V37.1523Z" fill="#31ACD9"/>
<path d="M75 30.0986C81.0083 30.6952 86.2329 33.9518 89.4834 38.6729L83.3916 42.1895C81.3991 39.5428 78.4201 37.6804 75 37.1523V30.0986Z" fill="#733EBE"/>
<path d="M7 66.6113C8.96082 68.9695 11.3298 70.9758 14 72.5205V85H7V66.6113ZM60 27.4785C57.3299 29.0231 54.9608 31.0296 53 33.3877V15H60V27.4785Z" fill="black"/>
</g>
<defs>
<clipPath id="clip0_1_99">
<rect width="100" height="100" fill="white"/>
</clipPath>
</defs>
</svg>
